<?xml version="1.0" standalone="no"?>
<!DOCTYPE svg PUBLIC "-//W3C//DTD SVG 20010904//EN"
 "http://www.w3.org/TR/2001/REC-SVG-20010904/DTD/svg10.dtd">
<svg version="1.0" xmlns="http://www.w3.org/2000/svg"
 width="1280.000000pt" height="729.000000pt" viewBox="0 0 1280.000000 729.000000"
 preserveAspectRatio="xMidYMid meet">
<g transform="translate(0.000000,729.000000) scale(0.100000,-0.100000)"
fill="#000000" stroke="none">
<path d="M5219 6554 c-272 -328 -495 -600 -497 -605 -2 -5 119 -9 284 -9 242
0 286 -2 274 -13 -8 -8 -170 -58 -360 -112 -245 -69 -351 -103 -367 -119 -12
-11 -240 -284 -506 -606 l-485 -585 207 -5 c127 -3 206 -9 206 -15 0 -12 -501
-183 -564 -193 l-45 -7 -478 -600 c-263 -329 -478 -603 -478 -607 0 -4 43 -8
95 -8 52 0 95 -4 95 -8 0 -4 -89 -53 -197 -107 l-198 -100 -478 -610 c-461
-587 -478 -610 -451 -615 15 -3 29 -10 31 -16 2 -5 -54 -49 -124 -96 -71 -48
-142 -101 -159 -120 -49 -52 -934 -1147 -941 -1164 -4 -12 728 -14 5650 -14
3111 0 5658 4 5661 8 2 4 -117 149 -266 322 -148 173 -291 340 -316 370 -324
379 -417 486 -426 492 -11 7 92 108 309 303 61 55 117 107 125 116 8 9 44 43
80 74 36 32 94 85 130 120 36 34 115 106 175 160 112 101 125 114 125 128 0 4
-71 7 -159 7 -129 0 -161 3 -171 15 -11 13 -100 15 -689 16 l-676 0 -192 241
c-106 133 -191 243 -189 245 8 8 57 -18 51 -27 -9 -14 24 -59 56 -76 16 -8 26
-20 24 -27 -6 -15 52 -87 68 -84 6 1 11 -5 12 -13 1 -35 42 -84 70 -85 5 0 10
-7 10 -15 0 -34 41 -84 70 -85 6 0 9 -8 7 -17 -1 -9 2 -19 7 -23 13 -7 1335
-7 1356 1 12 5 14 2 8 -12 -6 -17 27 8 117 88 l26 23 -156 135 c-258 226 -711
620 -779 679 -51 44 -60 49 -41 24 13 -18 27 -33 31 -33 4 0 36 -27 71 -61 35
-34 58 -60 51 -58 -13 4 -293 247 -293 255 0 12 19 0 59 -36 24 -22 47 -38 49
-35 3 3 3 6 1 8 -2 1 -42 36 -87 77 l-84 74 -48 -52 c-27 -29 -51 -52 -55 -52
-14 0 -180 -160 -180 -174 0 -6 -7 -11 -16 -11 -9 0 -28 -11 -44 -25 -80 -72
-140 -133 -140 -143 0 -7 -8 -11 -18 -9 -9 2 -17 -1 -17 -6 0 -4 -27 -28 -59
-53 -32 -24 -67 -56 -77 -71 -10 -15 -26 -29 -36 -31 -10 -3 -18 -12 -18 -21
0 -17 -15 -22 -24 -8 -5 9 115 123 259 246 44 38 85 74 90 81 6 6 49 46 96 87
47 41 110 97 140 125 30 28 72 66 94 86 22 19 36 39 32 44 -5 4 -81 10 -169
13 -109 3 -163 9 -165 16 -2 7 25 37 61 67 l65 55 -587 504 c-323 277 -591
503 -596 503 -5 0 -11 -6 -13 -12 -3 -7 3 -13 13 -13 9 0 36 -17 60 -37 23
-21 61 -54 84 -73 23 -19 54 -46 70 -60 16 -14 45 -38 65 -55 20 -16 52 -43
70 -60 18 -16 50 -43 70 -60 60 -50 131 -118 118 -114 -7 2 -129 104 -272 227
l-261 223 -22 -20 c-26 -25 -40 -27 -31 -4 5 12 -4 8 -30 -11 -41 -31 -50 -53
-14 -35 19 10 17 7 -7 -20 -33 -34 -49 -40 -39 -14 4 10 -12 2 -40 -21 -26
-21 -45 -41 -42 -44 2 -3 11 1 20 8 9 7 18 11 20 8 3 -3 -29 -36 -71 -73 -46
-42 -78 -64 -82 -57 -5 6 -30 -10 -67 -43 l-60 -54 35 -35 c19 -20 46 -50 60
-67 14 -18 33 -40 42 -50 9 -10 21 -27 28 -38 6 -12 17 -21 25 -21 7 0 17 -10
21 -22 5 -18 77 -107 155 -193 10 -11 27 -30 39 -42 11 -13 20 -26 20 -30 0
-3 25 -31 55 -60 30 -30 55 -60 55 -67 0 -7 9 -21 21 -32 25 -22 46 -58 31
-53 -8 3 -68 72 -161 184 -106 129 -218 262 -227 270 -5 6 -30 35 -55 65 -24
30 -49 61 -56 68 -7 7 -29 34 -50 60 -21 26 -44 52 -51 57 -11 9 11 35 95 121
59 61 160 159 223 217 l115 107 -178 0 c-149 0 -179 2 -183 15 -5 13 -39 15
-223 15 l-216 0 -26 33 c-68 84 -280 344 -404 496 -33 41 -94 116 -135 167
-41 50 -110 135 -154 188 -77 95 -78 96 -58 114 59 49 202 188 202 194 0 5
-85 8 -189 8 -155 0 -191 3 -201 15 -7 8 -18 15 -25 15 -7 0 -35 28 -63 63
-27 34 -83 103 -123 153 -189 233 -248 304 -304 373 -33 40 -73 90 -90 111
-16 20 -75 93 -130 160 -55 68 -111 137 -124 154 -35 45 -133 146 -152 156
-14 8 -107 -99 -510 -586z m2971 -2218 c0 -3 -4 -8 -10 -11 -5 -3 -10 -1 -10
4 0 6 5 11 10 11 6 0 10 -2 10 -4z m989 -206 c30 -28 51 -50 45 -50 -13 0
-121 99 -109 99 6 1 35 -22 64 -49z m140 -120 c30 -28 51 -50 45 -50 -13 0
-121 99 -109 99 6 1 35 -22 64 -49z m140 -120 c30 -28 51 -50 45 -50 -13 0
-121 99 -109 99 6 1 35 -22 64 -49z m119 -98 c15 -16 37 -34 50 -41 21 -11 31
-31 15 -31 -15 0 -118 99 -105 100 8 0 26 -13 40 -28z m126 -110 c2 -4 -15
-20 -37 -36 l-42 -29 29 31 c26 28 27 33 15 48 -13 16 -12 16 8 6 12 -7 24
-15 27 -20z m-84 -76 c0 -3 -4 -8 -10 -11 -5 -3 -10 -1 -10 4 0 6 5 11 10 11
6 0 10 -2 10 -4z m390 -157 c0 -14 -11 -11 -32 8 -27 24 -22 36 7 17 14 -9 25
-20 25 -25z m385 -347 c-3 -3 -18 7 -33 23 l-27 28 33 -23 c18 -12 31 -25 27
-28z m85 -62 c0 -17 -16 -11 -41 16 l-24 27 33 -17 c17 -9 32 -21 32 -26z m64
-54 c10 -8 16 -20 14 -26 -2 -6 -19 6 -38 26 -33 34 -20 34 24 0z m84 -73 c22
-21 50 -46 62 -56 12 -10 19 -21 16 -24 -5 -5 -136 103 -136 113 0 13 23 -1
58 -33z m142 -128 c13 -14 19 -25 13 -25 -5 0 -20 11 -33 25 -13 14 -19 25
-13 25 5 0 20 -11 33 -25z m79 -66 c12 -12 20 -24 16 -27 -3 -3 -18 6 -33 21
-31 32 -16 37 17 6z m81 -69 c14 -10 21 -22 17 -26 -4 -4 -20 4 -35 19 -31 31
-19 36 18 7z m78 -70 c13 -11 22 -24 20 -30 -2 -6 -16 3 -33 20 -32 33 -23 40
13 10z m85 -73 c9 -8 17 -16 17 -19 0 -11 -47 -56 -70 -68 -21 -10 -18 -6 12
27 l38 39 -28 28 c-27 28 -10 24 31 -7z"/>
<path d="M5945 6925 c55 -69 85 -105 118 -138 15 -16 27 -33 27 -37 0 -5 8
-17 18 -27 26 -26 154 -183 174 -213 8 -14 26 -36 39 -50 13 -14 53 -60 88
-103 35 -42 67 -74 72 -71 5 3 9 -2 9 -11 0 -18 18 -44 85 -123 79 -94 120
-144 127 -155 5 -9 11 -7 20 4 7 8 41 39 76 69 40 33 61 58 58 67 -5 11 0 13
17 8 20 -6 20 -6 7 8 -8 9 -47 42 -86 74 -39 32 -140 117 -224 188 -163 138
-521 440 -611 515 l-54 45 40 -50z m130 -110 c73 -60 120 -105 110 -105 -5 0
-42 30 -81 68 -39 37 -69 67 -68 67 2 -1 19 -14 39 -30z m183 -155 c15 -16 32
-30 38 -30 7 0 14 -7 18 -15 3 -8 2 -15 -2 -15 -14 1 -107 89 -94 90 8 0 26
-13 40 -30z m107 -90 c10 -11 14 -20 8 -20 -5 0 -18 9 -28 20 -10 11 -14 20
-8 20 5 0 18 -9 28 -20z m88 -72 c20 -18 53 -46 72 -63 20 -16 47 -39 59 -50
13 -11 32 -25 42 -31 11 -7 16 -15 12 -19 -6 -7 -238 179 -238 191 0 11 20 1
53 -28z m243 -206 c17 -15 54 -47 83 -71 28 -24 49 -46 46 -49 -4 -5 -175 135
-175 144 0 10 17 2 46 -24z"/>
<path d="M6885 6118 c-25 -15 -49 -38 -44 -43 2 -2 20 10 39 26 37 30 39 36 5
17z"/>
<path d="M6804 6053 c-11 -11 -31 -27 -46 -36 -28 -17 -41 -46 -14 -30 26 16
88 74 83 79 -3 3 -13 -3 -23 -13z"/>
<path d="M7103 5877 c-22 -23 -58 -55 -81 -71 -23 -16 -42 -33 -42 -37 0 -5
-11 -19 -25 -31 l-25 -21 48 -56 c26 -31 51 -62 57 -69 5 -8 19 -24 31 -36 11
-13 37 -46 58 -75 21 -28 44 -51 52 -51 8 0 14 -7 14 -16 0 -14 38 -65 105
-140 11 -13 37 -46 91 -116 20 -27 43 -48 50 -48 8 0 14 -7 14 -16 0 -14 34
-59 110 -146 8 -9 23 -27 32 -40 73 -96 92 -117 110 -121 11 -3 18 -9 15 -14
-3 -4 88 -7 201 -5 195 3 208 4 229 24 13 12 26 18 30 15 3 -4 -4 -15 -15 -26
-12 -10 -22 -21 -22 -25 0 -4 25 14 55 41 58 51 73 77 28 48 -19 -12 -13 -1
19 31 26 26 51 45 55 40 4 -4 -1 -14 -11 -22 -11 -7 -17 -16 -14 -19 2 -3 14
5 25 18 l21 22 -525 450 c-289 248 -554 474 -588 502 l-63 53 -39 -43z m122
-47 c12 -19 -12 -10 -31 11 -19 22 -19 22 3 10 12 -6 25 -16 28 -21z m65 -54
c22 -27 -5 -17 -31 10 -21 24 -22 26 -3 16 11 -6 26 -18 34 -26z m65 -56 c10
-11 14 -20 8 -20 -5 0 -18 9 -28 20 -10 11 -14 20 -8 20 5 0 18 -9 28 -20z
m75 -64 c22 -27 -5 -17 -31 10 -21 24 -22 26 -3 16 11 -6 26 -18 34 -26z m95
-80 c33 -30 58 -57 55 -59 -3 -3 -34 21 -70 54 -36 32 -60 58 -55 59 6 0 37
-25 70 -54z m140 -121 c33 -29 58 -56 55 -58 -3 -3 -34 21 -70 54 -36 32 -60
58 -55 58 6 0 37 -24 70 -54z m130 -110 c27 -24 47 -46 44 -49 -2 -3 -29 17
-59 44 -30 27 -50 49 -45 49 6 1 32 -19 60 -44z m145 -125 c30 -27 51 -50 45
-50 -13 0 -123 99 -110 99 6 1 35 -22 65 -49z m135 -115 c27 -24 47 -46 44
-49 -2 -3 -29 17 -59 44 -30 27 -50 49 -45 49 6 1 32 -19 60 -44z m140 -120
c27 -24 47 -47 44 -49 -2 -3 -29 17 -59 44 -30 27 -50 49 -44 50 6 0 32 -20
59 -45z"/>
<path d="M8255 4425 c-22 -19 -35 -34 -30 -34 14 -1 81 56 75 63 -3 2 -23 -11
-45 -29z"/>
<path d="M11340 2291 c0 -6 -20 -25 -45 -43 -24 -18 -47 -40 -50 -49 -3 -9
-15 -19 -26 -22 -11 -3 -23 -15 -26 -26 -3 -12 -11 -21 -19 -21 -17 0 -53 -38
-65 -67 -5 -13 -17 -23 -27 -23 -20 0 -72 -49 -72 -67 0 -6 -13 -16 -30 -22
-19 -6 -30 -17 -30 -29 0 -21 -23 -46 -33 -35 -9 8 -47 -26 -47 -42 0 -16 -28
-40 -46 -40 -21 0 -124 -106 -122 -124 2 -10 -4 -16 -17 -17 -34 -1 -53 -14
-70 -50 -9 -18 -19 -33 -24 -31 -12 3 -100 -66 -106 -85 -3 -9 -15 -20 -26
-23 -13 -5 -19 -14 -17 -28 2 -18 -2 -22 -21 -19 -21 2 -22 0 -10 -15 16 -22
66 -80 139 -163 30 -34 62 -74 71 -89 9 -14 40 -48 68 -76 28 -27 51 -54 51
-59 0 -5 27 -39 60 -75 34 -36 68 -74 76 -85 9 -10 38 -43 65 -75 28 -31 53
-60 57 -66 5 -5 32 -37 60 -70 29 -33 58 -66 65 -74 32 -40 95 -113 150 -175
34 -38 66 -75 70 -82 4 -8 21 -28 36 -45 l28 -31 439 403 c242 221 471 431
509 468 39 36 96 89 129 118 l58 52 -36 31 c-20 18 -110 94 -199 169 -90 75
-221 185 -293 246 -71 60 -174 147 -229 194 -55 46 -165 138 -244 205 -194
163 -201 169 -201 157z m20 -18 c0 -5 27 -30 60 -57 34 -27 59 -51 56 -53 -5
-5 -129 95 -134 108 -2 5 1 9 7 9 6 0 11 -3 11 -7z m176 -151 c16 -16 39 -34
52 -41 21 -11 31 -31 15 -31 -13 0 -119 99 -107 100 5 0 23 -13 40 -28z m133
-109 c19 -16 48 -41 66 -58 18 -16 41 -35 51 -41 10 -7 16 -15 12 -19 -6 -7
-178 129 -178 141 0 10 18 2 49 -23z m193 -165 c19 -18 56 -51 81 -73 26 -21
44 -41 42 -43 -4 -5 -175 136 -175 144 0 12 21 0 52 -28z m198 -170 c0 -4 14
-14 30 -23 17 -9 30 -20 30 -25 0 -19 -15 -10 -70 41 -43 39 -48 46 -22 32 17
-9 32 -21 32 -25z m105 -88 c10 -11 14 -20 8 -20 -5 0 -18 9 -28 20 -10 11
-14 20 -8 20 5 0 18 -9 28 -20z m94 -80 c29 -27 49 -50 44 -50 -13 0 -119 99
-107 100 6 0 34 -22 63 -50z m143 -120 c29 -28 60 -53 70 -55 15 -5 34 -35 22
-35 -7 0 -164 130 -164 136 0 14 26 -2 72 -46z m78 -137 c0 -10 -83 -82 -95
-83 -5 0 11 20 35 45 42 42 60 54 60 38z m-120 -110 c0 -5 -17 -21 -37 -38
-69 -56 -78 -58 -28 -6 47 48 65 61 65 44z m-120 -110 c0 -8 -65 -63 -90 -78
-8 -4 5 13 30 39 42 44 60 55 60 39z m-151 -144 c-57 -53 -76 -53 -24 0 27 28
51 47 53 41 2 -6 -11 -24 -29 -41z m-120 -110 c-61 -53 -75 -53 -24 0 27 28
51 47 54 40 2 -6 -12 -24 -30 -40z m-125 -112 c-22 -18 -65 -57 -97 -87 -32
-30 -66 -59 -75 -63 -9 -5 33 39 93 96 61 58 112 101 114 95 2 -5 -14 -24 -35
-41z m-250 -228 c-16 -17 -38 -35 -49 -41 -11 -6 -2 8 20 31 21 22 43 41 49
41 5 0 -3 -14 -20 -31z m-110 -100 c-10 -12 -32 -30 -49 -42 -26 -17 -25 -15
10 21 39 42 75 61 39 21z"/>
</g>
</svg>
